<svg
    xmlns="http://www.w3.org/2000/svg"
    width="166"
    height="73"
    viewBox="0 0 166 73"
    class="mark"
    fill="none"
>
    <path
        d="M165 36.5C165 41.2105 162.833 45.7758 158.757 50.0142C154.675 54.2576 148.722 58.1247 141.287 61.394C126.422 67.9314 105.815 72 83 72C60.1854 72 39.5785 67.9314 24.7127 61.394C17.2784 58.1247 11.3246 54.2576 7.24329 50.0142C3.16668 45.7758 1 41.2105 1 36.5C1 31.7895 3.16668 27.2242 7.24329 22.9858C11.3246 18.7424 17.2784 14.8753 24.7127 11.606C39.5785 5.06864 60.1854 1 83 1C105.815 1 126.422 5.06864 141.287 11.606C148.722 14.8753 154.675 18.7424 158.757 22.9858C162.833 27.2242 165 31.7895 165 36.5Z"
        stroke="#9C6BCC"
        stroke-width="2"
    />
</svg>