<svg width="200" height="38" viewBox="0 0 200 38" fill="none" xmlns="http://www.w3.org/2000/svg">
<g id="stars-5-1 1" clip-path="url(#clip0_7_251)">
<g id="Group">
<g id="Group_2">
<path id="Vector" d="M0 0.0100098H37.5V37.51H0V0.0100098ZM40.625 0.0100098H78.125V37.51H40.625V0.0100098ZM81.25 0.0100098H118.75V37.51H81.25V0.0100098ZM121.875 0.0100098H159.375V37.51H121.875V0.0100098ZM162.5 0.0100098H200V37.51H162.5V0.0100098Z" fill="#01B975" fill-opacity="0.8"/>
</g>
<path id="Vector_2" d="M18.75 25.2834L24.4531 23.8381L26.8359 31.1819L18.75 25.2834ZM31.875 15.7913H21.8359L18.75 6.33813L15.6641 15.7913H5.625L13.75 21.6506L10.6641 31.1038L18.7891 25.2444L23.7891 21.6506L31.875 15.7913ZM59.375 25.2834L65.0781 23.8381L67.4609 31.1819L59.375 25.2834ZM72.5 15.7913H62.4609L59.375 6.33813L56.2891 15.7913H46.25L54.375 21.6506L51.2891 31.1038L59.4141 25.2444L64.4141 21.6506L72.5 15.7913ZM100 25.2834L105.703 23.8381L108.086 31.1819L100 25.2834ZM113.125 15.7913H103.086L100 6.33813L96.9141 15.7913H86.875L95 21.6506L91.9141 31.1038L100.039 25.2444L105.039 21.6506L113.125 15.7913ZM140.625 25.2834L146.328 23.8381L148.711 31.1819L140.625 25.2834ZM153.75 15.7913H143.711L140.625 6.33813L137.539 15.7913H127.5L135.625 21.6506L132.539 31.1038L140.664 25.2444L145.664 21.6506L153.75 15.7913ZM181.25 25.2834L186.953 23.8381L189.336 31.1819L181.25 25.2834ZM194.375 15.7913H184.336L181.25 6.33813L178.164 15.7913H168.125L176.25 21.6506L173.164 31.1038L181.289 25.2444L186.289 21.6506L194.375 15.7913Z" fill="white"/>
</g>
</g>
<defs>
<clipPath id="clip0_7_251">
<rect width="200" height="37.52" fill="white"/>
</clipPath>
</defs>
</svg>
