<svg xmlns="http://www.w3.org/2000/svg" width="120" height="36" viewBox="0 0 120 36" fill="none">
    <g clip-path="url(#clip0_3_826)">
      <path d="M117.487 21.2091C117.419 21.5512 117.299 21.8419 117.137 22.0983C116.975 22.3545 116.761 22.56 116.488 22.7221C116.222 22.8763 115.889 22.9614 115.496 22.9614C115.111 22.9614 114.778 22.8847 114.513 22.7221C114.249 22.5674 114.024 22.354 113.855 22.0983C113.692 21.8421 113.573 21.5512 113.496 21.2091C113.421 20.8696 113.383 20.5227 113.385 20.175C113.385 19.816 113.419 19.4568 113.487 19.1239C113.556 18.7818 113.675 18.4827 113.838 18.2263C114 17.9609 114.214 17.7561 114.487 17.5853C114.752 17.4227 115.086 17.3373 115.479 17.3373C115.863 17.3373 116.188 17.4227 116.453 17.5853C116.719 17.7495 116.944 17.9715 117.111 18.2347C117.283 18.4996 117.402 18.8072 117.479 19.1408C117.556 19.4826 117.59 19.8244 117.59 20.175C117.59 20.5255 117.556 20.8673 117.487 21.2091ZM119.761 18.4485C119.599 17.8758 119.36 17.38 119.035 16.9441C118.701 16.5169 118.291 16.1662 117.795 15.91C117.299 15.6535 116.701 15.5168 116.009 15.5168C115.462 15.5168 114.966 15.628 114.513 15.8417C114.06 16.0554 113.684 16.4057 113.393 16.8759H113.359V15.7561H111.068V27.6114H113.479V23.4485H113.513C113.797 23.8667 114.186 24.2028 114.641 24.4231C115.103 24.6452 115.598 24.7564 116.145 24.7564C116.787 24.7564 117.351 24.6284 117.838 24.3804C118.308 24.1395 118.72 23.798 119.043 23.3802C119.368 22.9614 119.607 22.4826 119.761 21.9357C119.924 21.3886 120 20.8248 120 20.2348C120 19.611 119.924 19.0127 119.761 18.4398V18.4485ZM107.872 21.2091C107.803 21.5512 107.684 21.8419 107.521 22.0983C107.358 22.3547 107.145 22.56 106.871 22.7221C106.607 22.8763 106.273 22.9614 105.88 22.9614C105.495 22.9614 105.171 22.8847 104.897 22.7221C104.633 22.5673 104.407 22.3539 104.239 22.0983C104.076 21.8421 103.957 21.5512 103.88 21.2091C103.805 20.8696 103.767 20.5227 103.769 20.175C103.769 19.816 103.803 19.4568 103.871 19.1239C103.94 18.7818 104.059 18.4827 104.222 18.2263C104.384 17.9609 104.598 17.7561 104.871 17.5853C105.136 17.4227 105.47 17.3373 105.863 17.3373C106.248 17.3373 106.572 17.4227 106.837 17.5853C107.103 17.7495 107.328 17.9715 107.495 18.2347C107.666 18.4996 107.786 18.8072 107.863 19.1408C107.94 19.4826 107.974 19.8244 107.974 20.175C107.974 20.5255 107.94 20.8673 107.872 21.2091ZM109.418 16.9441C109.094 16.5169 108.675 16.1662 108.179 15.91C107.683 15.6535 107.085 15.5168 106.393 15.5168C105.845 15.5168 105.35 15.628 104.897 15.8417C104.444 16.0554 104.068 16.4057 103.777 16.8759H103.743V15.7561H101.452V27.6114H103.862V23.4485H103.897C104.181 23.8667 104.57 24.2028 105.025 24.4231C105.486 24.6452 105.982 24.7564 106.529 24.7564C107.179 24.7564 107.734 24.6284 108.222 24.3804C108.692 24.1393 109.103 23.7979 109.427 23.3802C109.752 22.9614 109.991 22.4826 110.154 21.9357C110.312 21.3825 110.392 20.8101 110.393 20.2348C110.393 19.611 110.316 19.0127 110.154 18.4398C109.991 17.8673 109.752 17.3713 109.418 16.9357V16.9441ZM93.5539 19.8503L95.1352 15.3969H95.1694L96.6996 19.8503H93.5539ZM93.8103 12.4053L89.2204 24.534H91.9043L92.8534 21.8332H97.3919L98.3064 24.534H101.076L96.5372 12.4053H93.8019H93.8103ZM89.0238 20.6878C88.8612 20.4143 88.6562 20.175 88.3913 19.987C88.1348 19.7991 87.8355 19.6534 87.5021 19.534C87.1643 19.423 86.8221 19.3261 86.4764 19.2436C86.1345 19.1664 85.8012 19.0894 85.4762 19.0211C85.1513 18.9529 84.8521 18.8757 84.6044 18.7903C84.3482 18.7049 84.1429 18.5939 83.989 18.4569C83.8264 18.3201 83.7497 18.1493 83.7497 17.9271C83.7497 17.7477 83.7924 17.6022 83.8862 17.491C83.9803 17.38 84.0915 17.3031 84.2196 17.2433C84.348 17.1834 84.4932 17.1492 84.6558 17.1323C84.8033 17.116 84.9517 17.1074 85.1001 17.1067C85.5276 17.1067 85.9037 17.1921 86.2202 17.3545C86.5364 17.5168 86.7159 17.8331 86.7415 18.2945H89.0322C88.9893 17.7474 88.8443 17.3031 88.6134 16.9439C88.3826 16.5847 88.0921 16.3029 87.7416 16.0892C87.3911 15.8755 86.9895 15.7218 86.5449 15.6277C86.1005 15.5336 85.6388 15.4909 85.1602 15.4909C84.6818 15.4909 84.2201 15.5339 83.7671 15.619C83.314 15.7044 82.904 15.8499 82.545 16.0636C82.1776 16.2774 81.8867 16.5596 81.6732 16.9183C81.4508 17.2773 81.3398 17.7477 81.3398 18.3114C81.3398 18.6962 81.4165 19.0209 81.5791 19.2858C81.733 19.5511 81.9465 19.7731 82.2029 19.9525C82.468 20.1236 82.7587 20.269 83.0921 20.38C83.4255 20.491 83.7673 20.5853 84.1178 20.662C84.9812 20.8415 85.648 21.021 86.135 21.2004C86.6136 21.3799 86.8532 21.6535 86.8532 22.0124C86.8532 22.2262 86.8018 22.4056 86.6993 22.5509C86.5989 22.6928 86.4673 22.8097 86.3145 22.8927C86.1606 22.9781 85.9896 23.0381 85.8016 23.0806C85.625 23.1208 85.4444 23.1408 85.2632 23.1404C85.0239 23.1404 84.793 23.1151 84.5793 23.055C84.3571 22.9952 84.1605 22.9093 83.9897 22.7899C83.8187 22.6703 83.6819 22.5164 83.571 22.3284C83.4598 22.1405 83.4084 21.9181 83.4084 21.6617H81.1176C81.1432 22.2512 81.2718 22.7385 81.5195 23.1317C81.7588 23.5252 82.0751 23.8328 82.4512 24.0721C82.8272 24.3114 83.2631 24.4822 83.7504 24.5847C84.2377 24.6875 84.7332 24.7388 85.2461 24.7388C85.7421 24.7388 86.2375 24.6875 86.7164 24.5931C87.195 24.4993 87.6225 24.3283 87.9985 24.089C88.3746 23.8497 88.6738 23.5334 88.9046 23.1486C89.1352 22.7557 89.2549 22.2771 89.2549 21.6957C89.2549 21.2856 89.1782 20.9438 89.0156 20.67L89.0238 20.6878ZM79.0486 13.1235H76.6382V15.7561H75.1763V17.3713H76.6382V22.5513C76.6382 22.9959 76.7149 23.3464 76.8603 23.6198C77.0058 23.8936 77.2109 24.0984 77.4673 24.2525C77.7237 24.3977 78.0147 24.5003 78.3478 24.5516C78.6987 24.6039 79.053 24.6295 79.4078 24.6284C79.6471 24.6284 79.8864 24.6199 80.1428 24.6115C80.3692 24.6038 80.5947 24.5809 80.818 24.543V22.671C80.7 22.6976 80.58 22.7147 80.4593 22.7221C80.3285 22.7324 80.1973 22.7381 80.0661 22.7393C79.6558 22.7393 79.3906 22.671 79.2541 22.534C79.1173 22.3974 79.0488 22.1236 79.0488 21.7222V17.3713H80.818V15.7561H79.0488V13.1235H79.0486ZM72.1334 21.1409C72.1334 21.2774 72.1165 21.4571 72.0907 21.688C72.0619 21.9241 71.9832 22.1514 71.8598 22.3547C71.7317 22.5772 71.5436 22.7651 71.2787 22.9277C71.0225 23.0898 70.6462 23.167 70.1763 23.167C69.9881 23.167 69.8 23.1496 69.612 23.1156C69.4326 23.0811 69.2702 23.0213 69.1334 22.9361C68.9967 22.8505 68.8941 22.7395 68.8085 22.5856C68.7318 22.4404 68.6888 22.2609 68.6888 22.0385C68.6888 21.8076 68.7318 21.6281 68.8085 21.4745C68.8854 21.3288 68.9964 21.2091 69.125 21.1068C69.2531 21.0128 69.407 20.936 69.5865 20.8762C69.7659 20.8164 69.937 20.7735 70.1249 20.7392C70.3179 20.706 70.5116 20.6775 70.706 20.6538C70.9026 20.6282 71.0823 20.6024 71.2618 20.5684C71.4413 20.5344 71.6037 20.4915 71.7576 20.4403C71.9115 20.3892 72.0396 20.3207 72.1423 20.2266V21.1242L72.1334 21.1409ZM74.5438 22.5854V18.0123C74.5438 17.4826 74.4241 17.0551 74.1851 16.7304C73.9458 16.4055 73.6377 16.1577 73.2703 15.9782C72.8942 15.7988 72.4839 15.6791 72.0309 15.6108C71.5862 15.5501 71.138 15.5186 70.6891 15.5168C70.2016 15.5168 69.7146 15.5681 69.236 15.6622C68.7576 15.7563 68.3214 15.9184 67.9367 16.1495C67.5579 16.3749 67.2339 16.6814 66.9879 17.0471C66.7402 17.4232 66.5947 17.8931 66.5607 18.4574H68.9711C69.0138 17.979 69.1761 17.6456 69.4494 17.4403C69.7232 17.2351 70.0906 17.1328 70.5695 17.1328C70.7832 17.1328 70.988 17.1497 71.1764 17.1755C71.3515 17.1985 71.5201 17.2567 71.6722 17.3465C71.8176 17.4319 71.9286 17.5516 72.0142 17.7055C72.0996 17.8594 72.1423 18.0642 72.1423 18.3293C72.1508 18.577 72.0825 18.7654 71.9199 18.902C71.7576 19.0301 71.5438 19.1328 71.2705 19.2011C70.9972 19.2694 70.6894 19.3208 70.3389 19.355C69.9884 19.3893 69.6294 19.432 69.2704 19.4918C68.9115 19.5516 68.5523 19.6283 68.1933 19.7224C67.8344 19.8165 67.5179 19.9617 67.2443 20.1586C66.9623 20.3549 66.7402 20.6113 66.5607 20.9276C66.3812 21.2525 66.2956 21.6629 66.2956 22.1586C66.2956 22.6116 66.3723 23.0049 66.5264 23.3296C66.6707 23.6461 66.8874 23.9243 67.1589 24.1418C67.4412 24.3613 67.7634 24.5238 68.1077 24.6204C68.4667 24.7229 68.8599 24.7741 69.2787 24.7741C69.8258 24.7741 70.3558 24.6973 70.8771 24.5348C71.3927 24.3774 71.8602 24.0922 72.2362 23.7059C72.2446 23.8511 72.2704 23.9961 72.296 24.1418C72.3216 24.2783 72.3643 24.4238 72.4072 24.5606H74.8518C74.7406 24.3811 74.6552 24.1073 74.6125 23.7483C74.5673 23.3711 74.5444 22.9916 74.544 22.6116V22.5854H74.5438ZM64.6118 16.5167C64.3725 16.2091 64.0475 15.9611 63.6374 15.7901C63.2271 15.6106 62.6973 15.525 62.0475 15.525C61.5944 15.525 61.1329 15.6446 60.6543 15.8755C60.1757 16.1063 59.791 16.4824 59.4834 16.9866H59.432V12.4138H57.0216V24.5427H59.432V19.9357C59.432 19.038 59.5775 18.3971 59.8766 18.0039C60.1673 17.6107 60.6459 17.4227 61.304 17.4227C61.8767 17.4227 62.287 17.6022 62.5092 17.9609C62.7316 18.3199 62.8512 18.8585 62.8512 19.5849V24.5427H65.2616V19.1408C65.2616 18.5937 65.2103 18.0982 65.1162 17.6536C65.0221 17.209 64.8511 16.8245 64.6118 16.5167ZM51.8672 20.7735H51.8329L49.7646 12.414H47.2686L45.1658 20.6709H45.1315L43.2082 12.414H40.5416L43.7553 24.543H46.4563L48.4735 16.2858H48.5078L50.5592 24.543H53.2089L54.6619 19.1579L56.474 12.414H53.8583L51.8672 20.7735Z" fill="black" fill-opacity="0.4"/>
      <path d="M17.9332 31.8424C14.9842 31.8424 12.2319 30.9535 9.93276 29.4407L4.34243 31.2268L6.15457 25.8249C4.41094 23.4314 3.38546 20.4825 3.38546 17.3028C3.38546 9.28524 9.90719 2.76351 17.9248 2.76351C25.9424 2.76351 32.4641 9.28524 32.4641 17.3028C32.4641 25.3202 25.9424 31.8422 17.9248 31.8422H17.9332V31.8424ZM17.9332 0.0110474C8.38525 0.0110474 0.641441 7.75558 0.641441 17.3031C0.641441 20.5682 1.54751 23.6282 3.12011 26.2352L0.000244141 35.5094L9.5738 32.4409C12.1327 33.8559 15.0092 34.5971 17.9332 34.5949C27.481 34.5949 35.225 26.8508 35.225 17.3031C35.2248 7.75558 27.481 0.0110474 17.9332 0.0110474Z" fill="#FEFEFE"/>
      <path d="M17.9332 2.76355C9.91563 2.76355 3.39391 9.28528 3.39391 17.3029C3.39391 20.4826 4.41963 23.4314 6.16326 25.8249L4.35112 31.2268L9.9412 29.4408C12.2404 30.9622 14.9842 31.8425 17.9417 31.8425C25.9593 31.8425 32.481 25.3205 32.481 17.3031C32.481 9.28552 25.9593 2.76379 17.9417 2.76379H17.9332V2.76355Z" fill="black" fill-opacity="0.4"/>
      <path d="M13.873 10.1489C13.591 9.47364 13.3773 9.44807 12.9501 9.4307C12.7879 9.42025 12.6254 9.41462 12.4628 9.41382C11.907 9.41382 11.3259 9.57617 10.9754 9.93512C10.5481 10.371 9.48816 11.3881 9.48816 13.4738C9.48816 15.5595 11.0096 17.5767 11.2147 17.8589C11.4284 18.1407 14.1809 22.4828 18.4545 24.2525C21.7966 25.6372 22.7883 25.5089 23.5489 25.3465C24.66 25.1072 26.0534 24.2863 26.4039 23.2951C26.7544 22.3034 26.7544 21.4571 26.6516 21.2776C26.5491 21.0982 26.2669 20.9959 25.8396 20.7819C25.4124 20.5682 23.3352 19.5425 22.9419 19.4057C22.5572 19.2605 22.1898 19.3118 21.8993 19.7222C21.489 20.2949 21.0874 20.8762 20.7624 21.2265C20.506 21.5001 20.087 21.5343 19.7367 21.3889C19.2665 21.1925 17.9504 20.7305 16.3261 19.286C15.0696 18.1665 14.2149 16.7733 13.9671 16.3546C13.7191 15.9273 13.9416 15.6791 14.1379 15.4485C14.3517 15.1834 14.5567 14.9955 14.7704 14.7475C14.9842 14.4997 15.1038 14.3714 15.2406 14.0807C15.3861 13.7987 15.2833 13.508 15.1808 13.2943C15.0782 13.0806 14.2236 10.9949 13.873 10.1489Z" fill="#FEFEFE"/>
    </g>
    <defs>
      <clipPath id="clip0_3_826">
        <rect width="120" height="35.52" fill="white"/>
      </clipPath>
    </defs>
  </svg>